<svg xmlns="http://www.w3.org/2000/svg" width="163" height="188" fill="none" aria-hidden="true"><path fill="#262626" fill-rule="evenodd" d="m117.584 187.022-16.497-13.813c-5.862 2.271-12.49 3.549-19.509 3.549-7.017 0-13.644-1.278-19.506-3.548L45.58 187.018a.941.941 0 0 1-1.537-.596l-4.839-35.979a25.837 25.837 0 0 1-.924-6.85c0-18.316 19.385-33.165 43.298-33.165 23.914 0 43.299 14.849 43.299 33.165 0 .312-.006.623-.017.932l.017-.011-.023.167a25.803 25.803 0 0 1-.662 4.82l-5.071 36.927a.942.942 0 0 1-1.537.594Z" clip-rule="evenodd"/><circle cx="60.155" cy="148.892" r="9.441" fill="#FFC166" transform="rotate(-180 60.155 148.892)"/><circle cx="60.163" cy="148.892" r="7.768" fill="#262626" transform="rotate(-180 60.163 148.892)"/><circle cx="65.765" cy="153.39" r="1.679" fill="#fff" transform="rotate(-180 65.765 153.39)"/><circle cx="102.539" cy="148.892" r="9.441" fill="#FFC166" transform="rotate(-180 102.539 148.892)"/><circle cx="102.538" cy="148.892" r="7.768" fill="#262626" transform="rotate(-180 102.538 148.892)"/><circle cx="108.149" cy="153.389" r="1.679" fill="#fff" transform="rotate(-180 108.149 153.389)"/><path fill="#E18071" d="M81.205 148.2c1.59 0 3.229-.228 4.437-.458.662-.127.886-.922.415-1.403l-4.199-4.293a.883.883 0 0 0-1.283.023l-3.947 4.323c-.435.476-.224 1.226.407 1.358 1.091.227 2.599.45 4.17.45Z"/><path stroke="#262626" stroke-linecap="round" stroke-width=".957" d="M114.883 149.352c5.414 2.612 18.307 7.688 43.154 7.091M47.95 149.352c-5.413 2.612-18.306 7.688-43.153 7.091M119.345 143.996c4.468-.159 17.964 1.439 33.913-4.462M43.488 143.996c-4.467-.159-17.963 1.439-33.913-4.462"/><path stroke="#262626" stroke-linecap="round" stroke-width=".883" d="M121.187 147.74c6.449 1.381 23.031 3.224 40.535-.001M41.647 147.74c-6.449 1.381-23.031 3.224-40.535-.001"/><path fill="#D47B00" fill-rule="evenodd" d="M20.815 143.269v-6.133h36.794v6.133c0 10.16-8.236 18.397-18.397 18.397-10.16 0-18.397-8.237-18.397-18.397Z" clip-rule="evenodd"/><path fill="#FA3" fill-rule="evenodd" d="M39.212 161.666c9.258 0 4.92-18.397-18.397-18.397 0 10.16 8.237 18.397 18.397 18.397Z" clip-rule="evenodd"/><path fill="#262626" fill-rule="evenodd" d="M30.183 162.771c-2.752-.954-5.83-2.927-8.348-5.749-3.79-4.246-5.213-9.182-4.52-12.284a6.205 6.205 0 0 1 12.364-.494 6.193 6.193 0 0 1 4.745 2.072 6.197 6.197 0 0 1 1.445 5.396 6.384 6.384 0 0 1 1.9 1.457c2.317 2.597 2.123 6.552-.434 8.834-2.012 1.796-4.889 2.02-7.152.768Z" clip-rule="evenodd"/><path fill="#FFC166" d="M89.55 8.05a8.05 8.05 0 1 0-16.1 0v8.05c0 .19.007.38.02.568-27.317 3.897-48.32 27.387-48.32 55.782v11.083a51.332 51.332 0 0 1-9.209 29.336L2.444 132.25A8.049 8.049 0 0 0 9.05 144.9h144.9a8.05 8.05 0 0 0 6.606-12.65l-13.497-19.381a51.332 51.332 0 0 1-9.209-29.336V72.45c0-28.395-21.002-51.884-48.32-55.782.014-.188.02-.377.02-.568V8.05Z"/><path fill="#fff" fill-rule="evenodd" d="M102.849 42.421a4.715 4.715 0 0 1 4.181 4.181l1.812 16.758a.726.726 0 0 0 1.444 0l1.812-16.758a4.715 4.715 0 0 1 4.181-4.181l16.757-1.812a.726.726 0 0 0 0-1.444l-16.757-1.811a4.715 4.715 0 0 1-4.181-4.181l-1.812-16.758a.726.726 0 0 0-1.444 0l-1.812 16.758a4.715 4.715 0 0 1-4.181 4.18l-16.758 1.812a.726.726 0 0 0 0 1.444l16.758 1.812Z" clip-rule="evenodd"/></svg>